<svg width="4320" height="1080" viewBox="0 0 4320 1080" fill="none" xmlns="http://www.w3.org/2000/svg">
<g clip-path="url(#clip0_37_2)">
<path d="M1000 970.375L504.192 109L358.301 356.065L710.453 970.375H1000Z" fill="#FF4413"/>
<path d="M457.239 692.007L311.347 441.588H17.3281L163.779 693.125L0 969.816H294.019L457.239 692.007Z" fill="#969292"/>
<path d="M1000 970.375L504.192 109L358.301 356.065L710.453 970.375H1000Z" stroke="#969292"/>
<path d="M457.239 692.007L311.347 441.588H17.3281L163.779 693.125L0 969.816H294.019L457.239 692.007Z" stroke="#969292"/>
<path d="M1297.25 656.75H1175.75L1146.5 751H1100.25L1217.75 387H1256.5L1372 751H1326L1297.25 656.75ZM1188.25 616.5H1285L1237 458.5L1188.25 616.5ZM1608.25 475.5C1616.75 475.5 1625.58 476.083 1634.75 477.25C1644.08 478.417 1651.08 480 1655.75 482L1649.5 527.25C1640.5 525.25 1631.92 523.833 1623.75 523C1615.75 522 1607.33 521.5 1598.5 521.5C1587.17 521.5 1576.92 522.917 1567.75 525.75C1558.58 528.417 1550.58 532.417 1543.75 537.75C1537.58 542.417 1532.17 548.167 1527.5 555C1523 561.667 1519.25 569.167 1516.25 577.5V751H1469.75V480.5H1513.75L1515.75 516.75L1516 523.5C1527 508.667 1540.17 497 1555.5 488.5C1571 479.833 1588.58 475.5 1608.25 475.5ZM1745.75 480.5H1884V711H1972.25V751H1745.75V711H1837.75V520.75H1745.75V480.5ZM1831.75 409.5C1831.75 405.5 1832.33 401.75 1833.5 398.25C1834.83 394.75 1836.83 391.75 1839.5 389.25C1841.67 387.083 1844.42 385.417 1847.75 384.25C1851.25 382.917 1855.17 382.25 1859.5 382.25C1863.83 382.25 1867.67 382.917 1871 384.25C1874.33 385.417 1877.08 387.083 1879.25 389.25C1881.92 391.583 1883.92 394.5 1885.25 398C1886.58 401.5 1887.25 405.333 1887.25 409.5C1887.25 417 1884.92 423.25 1880.25 428.25C1875.58 433.25 1868.67 435.75 1859.5 435.75C1850.17 435.75 1843.17 433.25 1838.5 428.25C1834 423.25 1831.75 417 1831.75 409.5ZM2037.25 613.5C2037.25 593.333 2039.75 574.833 2044.75 558C2049.92 541 2057.25 526.417 2066.75 514.25C2076.08 502.083 2087.42 492.583 2100.75 485.75C2114.08 478.917 2129 475.5 2145.5 475.5C2161.67 475.5 2175.75 478.25 2187.75 483.75C2199.92 489.083 2210.42 496.917 2219.25 507.25V367H2265.5V751H2223L2221 722.5C2212 733.5 2201.25 741.833 2188.75 747.5C2176.25 753.167 2161.67 756 2145 756C2128.67 756 2113.83 752.5 2100.5 745.5C2087.33 738.5 2076.08 728.833 2066.75 716.5C2057.42 704.167 2050.17 689.667 2045 673C2039.83 656.167 2037.25 638.083 2037.25 618.75V613.5ZM2083.5 618.75C2083.5 631.917 2084.92 644.417 2087.75 656.25C2090.58 668.083 2095 678.5 2101 687.5C2106.83 696.5 2114.33 703.667 2123.5 709C2132.67 714.167 2143.67 716.75 2156.5 716.75C2172 716.75 2184.83 713.25 2195 706.25C2205.17 699.25 2213.25 689.833 2219.25 678V552.5C2213.25 541.5 2205.17 532.5 2195 525.5C2184.83 518.333 2172.17 514.75 2157 514.75C2144 514.75 2132.83 517.417 2123.5 522.75C2114.33 528.083 2106.83 535.25 2101 544.25C2095 553.417 2090.58 564 2087.75 576C2084.92 587.833 2083.5 600.333 2083.5 613.5V618.75ZM2473 756C2454 756 2436.5 752.75 2420.5 746.25C2404.67 739.75 2391.08 730.667 2379.75 719C2368.42 707.333 2359.58 693.5 2353.25 677.5C2346.92 661.5 2343.75 644.083 2343.75 625.25V614.75C2343.75 592.917 2347.25 573.417 2354.25 556.25C2361.25 538.917 2370.58 524.25 2382.25 512.25C2393.75 500.417 2406.83 491.333 2421.5 485C2436.33 478.667 2451.5 475.5 2467 475.5C2486.5 475.5 2503.5 478.917 2518 485.75C2532.67 492.417 2544.83 501.667 2554.5 513.5C2564.17 525.5 2571.33 539.583 2576 555.75C2580.83 571.917 2583.25 589.417 2583.25 608.25V629H2390V630.75C2391.17 643.917 2393.75 655.5 2397.75 665.5C2401.92 675.5 2407.58 684.333 2414.75 692C2422.08 700.167 2430.92 706.583 2441.25 711.25C2451.58 715.917 2463 718.25 2475.5 718.25C2492 718.25 2506.67 714.917 2519.5 708.25C2532.33 701.583 2543 692.75 2551.5 681.75L2579.75 703.75C2570.75 717.417 2557.25 729.583 2539.25 740.25C2521.42 750.75 2499.33 756 2473 756ZM2467 513.5C2457.67 513.5 2448.83 515.25 2440.5 518.75C2432.17 522.083 2424.67 527 2418 533.5C2411.33 540.167 2405.67 548.333 2401 558C2396.5 567.5 2393.33 578.5 2391.5 591H2537V588.75C2537 580.417 2535.42 571.5 2532.25 562C2529.08 552.333 2524.67 544 2519 537C2513.33 530 2506.17 524.333 2497.5 520C2489 515.667 2478.83 513.5 2467 513.5ZM2661 751V480.5H2702.5L2705.75 520.5C2709.75 514.833 2714.08 509.667 2718.75 505C2723.58 500.167 2728.67 496 2734 492.5C2742 487.167 2750.67 483.083 2760 480.25C2769.5 477.25 2779.5 475.667 2790 475.5C2804.17 475.5 2817 477.5 2828.5 481.5C2840.17 485.5 2850.08 491.75 2858.25 500.25C2866.42 508.75 2872.67 519.583 2877 532.75C2881.5 545.75 2883.75 561.25 2883.75 579.25V751H2837.5V580.25C2837.5 568.25 2836.17 558.083 2833.5 549.75C2830.83 541.417 2826.92 534.667 2821.75 529.5C2816.42 524.333 2809.92 520.583 2802.25 518.25C2794.75 515.917 2786.08 514.75 2776.25 514.75C2767.75 514.75 2759.83 516 2752.5 518.5C2745.17 520.833 2738.42 524.083 2732.25 528.25C2727.25 531.917 2722.58 536.167 2718.25 541C2714.08 545.833 2710.42 551.167 2707.25 557V751H2661ZM3078 415V480.5H3181V516.25H3078V663.25C3078 673.75 3079.33 682.417 3082 689.25C3084.67 696.083 3088.33 701.5 3093 705.5C3097.67 709.667 3103 712.583 3109 714.25C3115.17 715.917 3121.67 716.75 3128.5 716.75C3133.5 716.75 3138.67 716.5 3144 716C3149.33 715.333 3154.58 714.583 3159.75 713.75C3164.75 712.917 3169.42 712.083 3173.75 711.25C3178.25 710.25 3181.92 709.417 3184.75 708.75L3191.25 741.5C3187.42 743.833 3182.75 745.917 3177.25 747.75C3171.75 749.417 3165.75 750.833 3159.25 752C3152.75 753.333 3145.83 754.333 3138.5 755C3131.33 755.667 3124.17 756 3117 756C3105 756 3093.75 754.333 3083.25 751C3072.92 747.5 3063.92 742 3056.25 734.5C3048.58 727.167 3042.5 717.667 3038 706C3033.67 694.167 3031.5 679.917 3031.5 663.25V516.25H2960.5V480.5H3031.5V415H3078ZM3396.5 602.5H3323.75V751H3277.75V387H3384.5C3401.5 387.333 3417.5 389.75 3432.5 394.25C3447.5 398.75 3460.67 405.5 3472 414.5C3483.17 423.5 3491.92 434.833 3498.25 448.5C3504.75 462 3508 477.917 3508 496.25C3508 508.083 3506.25 518.917 3502.75 528.75C3499.42 538.583 3494.75 547.5 3488.75 555.5C3482.75 563.5 3475.58 570.583 3467.25 576.75C3458.92 582.917 3449.75 588.167 3439.75 592.5L3517 748L3516.75 751H3468L3396.5 602.5ZM3323.75 564.5H3385.75C3396.08 564.333 3405.83 562.75 3415 559.75C3424.17 556.583 3432.25 552.083 3439.25 546.25C3446.08 540.417 3451.5 533.333 3455.5 525C3459.5 516.5 3461.5 506.75 3461.5 495.75C3461.5 484.083 3459.58 473.917 3455.75 465.25C3451.92 456.417 3446.58 449 3439.75 443C3432.92 437.167 3424.75 432.75 3415.25 429.75C3405.92 426.75 3395.67 425.167 3384.5 425H3323.75V564.5ZM3583.5 387H3803.5V427.25H3716.25V711H3803.5V751H3583.5V711H3668.75V427.25H3583.5V387ZM4081.5 659C4081.5 647.833 4078.92 638.417 4073.75 630.75C4068.75 623.083 4062.25 616.583 4054.25 611.25C4046.25 606.083 4037.42 601.75 4027.75 598.25C4018.25 594.75 4009.08 591.583 4000.25 588.75C3987.42 584.583 3974.33 579.583 3961 573.75C3947.83 567.75 3935.83 560.583 3925 552.25C3914 543.75 3905 533.75 3898 522.25C3891.17 510.583 3887.75 496.917 3887.75 481.25C3887.75 465.583 3891.17 451.583 3898 439.25C3905 426.917 3914.08 416.5 3925.25 408C3936.42 399.5 3949.08 393.083 3963.25 388.75C3977.42 384.25 3991.67 382 4006 382C4021.83 382 4037.08 384.667 4051.75 390C4066.42 395.167 4079.42 402.5 4090.75 412C4102.08 421.5 4111.17 433 4118 446.5C4124.83 460 4128.42 475.083 4128.75 491.75H4081.25C4079.92 481.25 4077.33 471.75 4073.5 463.25C4069.67 454.583 4064.58 447.167 4058.25 441C4051.92 434.833 4044.33 430.083 4035.5 426.75C4026.83 423.25 4017 421.5 4006 421.5C3997.17 421.5 3988.5 422.75 3980 425.25C3971.67 427.75 3964.25 431.5 3957.75 436.5C3951.08 441.5 3945.75 447.667 3941.75 455C3937.92 462.333 3936 470.833 3936 480.5C3936.17 491 3938.83 499.917 3944 507.25C3949.17 514.417 3955.75 520.5 3963.75 525.5C3971.58 530.5 3980.08 534.667 3989.25 538C3998.58 541.333 4007.33 544.25 4015.5 546.75C4029 550.917 4042.5 556 4056 562C4069.5 567.833 4081.83 575.333 4093 584.5C4104 593 4112.83 603.417 4119.5 615.75C4126.33 628.083 4129.75 642.333 4129.75 658.5C4129.75 674.833 4126.08 689.083 4118.75 701.25C4111.58 713.417 4102.25 723.5 4090.75 731.5C4079.25 739.667 4066.25 745.833 4051.75 750C4037.25 754 4022.75 756 4008.25 756C3990.92 756 3973.83 753.083 3957 747.25C3940.33 741.417 3925.83 733 3913.5 722C3902.5 712.5 3893.75 701.417 3887.25 688.75C3880.92 675.917 3877.5 661.667 3877 646H3924.25C3925.75 657.333 3928.83 667.417 3933.5 676.25C3938.17 684.917 3944.17 692.25 3951.5 698.25C3958.83 704.417 3967.25 709.083 3976.75 712.25C3986.42 715.25 3996.92 716.75 4008.25 716.75C4017.25 716.75 4026.08 715.667 4034.75 713.5C4043.58 711.167 4051.42 707.583 4058.25 702.75C4065.08 698.083 4070.67 692.167 4075 685C4079.33 677.667 4081.5 669 4081.5 659Z" fill="white"/>
</g>
<defs>
<clipPath id="clip0_37_2">
<rect width="4320" height="1080" fill="white"/>
</clipPath>
</defs>
</svg>
